<svg width="25" height="26" viewBox="0 0 25 26" fill="none" xmlns="http://www.w3.org/2000/svg">
<path d="M8.92857 2.0625V3.625H16.0714V2.0625C16.0714 1.19971 16.8694 0.5 17.8571 0.5C18.8449 0.5 19.6429 1.19971 19.6429 2.0625V3.625H22.3214C23.8002 3.625 25 4.67432 25 5.96875V8.3125H0V5.96875C0 4.67432 1.19922 3.625 2.67857 3.625H5.35714V2.0625C5.35714 1.19971 6.15513 0.5 7.14286 0.5C8.13058 0.5 8.92857 1.19971 8.92857 2.0625ZM0 9.875H25V23.1562C25 24.4502 23.8002 25.5 22.3214 25.5H2.67857C1.19922 25.5 0 24.4502 0 23.1562V9.875ZM4.46429 13C3.97098 13 3.57143 13.3516 3.57143 13.7812V16.9062C3.57143 17.3359 3.97098 17.6875 4.46429 17.6875H20.5357C21.0268 17.6875 21.4286 17.3359 21.4286 16.9062V13.7812C21.4286 13.3516 21.0268 13 20.5357 13H4.46429Z" fill="#EE7404"/>
</svg>
