<svg width="28" height="32" viewBox="0 0 28 32" fill="none" xmlns="http://www.w3.org/2000/svg">
<g clip-path="url(#clip0_134_4558)">
<path d="M10.3125 4.375H18.0625V2.4375C18.0625 1.36764 18.9283 0.5 20 0.5C21.0717 0.5 21.9375 1.36764 21.9375 2.4375V4.375H24.8438C26.4482 4.375 27.75 5.67615 27.75 7.28125V12.125H0.625V7.28125C0.625 5.67615 1.92615 4.375 3.53125 4.375H6.4375V2.4375C6.4375 1.36764 7.30332 0.5 8.375 0.5C9.44668 0.5 10.3125 1.36764 10.3125 2.4375V4.375Z" fill="#EE7404"/>
<path opacity="0.4" d="M0.625 12.125H27.75V28.5938C27.75 30.1982 26.4482 31.5 24.8438 31.5H3.53125C1.92615 31.5 0.625 30.1982 0.625 28.5938V12.125ZM4.5 18.9062C4.5 19.4391 4.93352 19.875 5.46875 19.875H7.40625C7.93906 19.875 8.375 19.4391 8.375 18.9062V16.9688C8.375 16.4359 7.93906 16 7.40625 16H5.46875C4.93352 16 4.5 16.4359 4.5 16.9688V18.9062ZM13.2188 16C12.6859 16 12.25 16.4359 12.25 16.9688V18.9062C12.25 19.4391 12.6859 19.875 13.2188 19.875H15.1562C15.6891 19.875 16.125 19.4391 16.125 18.9062V16.9688C16.125 16.4359 15.6891 16 15.1562 16H13.2188ZM20 18.9062C20 19.4391 20.4359 19.875 20.9688 19.875H22.9062C23.4391 19.875 23.875 19.4391 23.875 18.9062V16.9688C23.875 16.4359 23.4391 16 22.9062 16H20.9688C20.4359 16 20 16.4359 20 16.9688V18.9062ZM5.46875 23.75C4.93352 23.75 4.5 24.1859 4.5 24.7188V26.6562C4.5 27.1891 4.93352 27.625 5.46875 27.625H7.40625C7.93906 27.625 8.375 27.1891 8.375 26.6562V24.7188C8.375 24.1859 7.93906 23.75 7.40625 23.75H5.46875ZM12.25 26.6562C12.25 27.1891 12.6859 27.625 13.2188 27.625H15.1562C15.6891 27.625 16.125 27.1891 16.125 26.6562V24.7188C16.125 24.1859 15.6891 23.75 15.1562 23.75H13.2188C12.6859 23.75 12.25 24.1859 12.25 24.7188V26.6562ZM20.9688 23.75C20.4359 23.75 20 24.1859 20 24.7188V26.6562C20 27.1891 20.4359 27.625 20.9688 27.625H22.9062C23.4391 27.625 23.875 27.1891 23.875 26.6562V24.7188C23.875 24.1859 23.4391 23.75 22.9062 23.75H20.9688Z" fill="#EE7404"/>
</g>
<defs>
<clipPath id="clip0_134_4558">
<rect width="27.125" height="31" fill="white" transform="translate(0.625 0.5)"/>
</clipPath>
</defs>
</svg>
