<svg width="25" height="26" viewBox="0 0 25 26" fill="none" xmlns="http://www.w3.org/2000/svg">
<path d="M8.92857 2.0625V3.625H16.0714V2.0625C16.0714 1.19971 16.8694 0.5 17.8571 0.5C18.8449 0.5 19.6429 1.19971 19.6429 2.0625V3.625H22.3214C23.8002 3.625 25 4.67432 25 5.96875V8.3125H0V5.96875C0 4.67432 1.19922 3.625 2.67857 3.625H5.35714V2.0625C5.35714 1.19971 6.15513 0.5 7.14286 0.5C8.13058 0.5 8.92857 1.19971 8.92857 2.0625ZM0 9.875H25V23.1562C25 24.4502 23.8002 25.5 22.3214 25.5H2.67857C1.19922 25.5 0 24.4502 0 23.1562V9.875ZM3.57143 15.3438C3.57143 15.7734 3.97098 16.125 4.46429 16.125H6.25C6.74107 16.125 7.14286 15.7734 7.14286 15.3438V13.7812C7.14286 13.3516 6.74107 13 6.25 13H4.46429C3.97098 13 3.57143 13.3516 3.57143 13.7812V15.3438ZM10.7143 15.3438C10.7143 15.7734 11.1161 16.125 11.6071 16.125H13.3929C13.8839 16.125 14.2857 15.7734 14.2857 15.3438V13.7812C14.2857 13.3516 13.8839 13 13.3929 13H11.6071C11.1161 13 10.7143 13.3516 10.7143 13.7812V15.3438ZM18.75 13C18.2589 13 17.8571 13.3516 17.8571 13.7812V15.3438C17.8571 15.7734 18.2589 16.125 18.75 16.125H20.5357C21.0268 16.125 21.4286 15.7734 21.4286 15.3438V13.7812C21.4286 13.3516 21.0268 13 20.5357 13H18.75ZM3.57143 21.5938C3.57143 22.0234 3.97098 22.375 4.46429 22.375H6.25C6.74107 22.375 7.14286 22.0234 7.14286 21.5938V20.0312C7.14286 19.6016 6.74107 19.25 6.25 19.25H4.46429C3.97098 19.25 3.57143 19.6016 3.57143 20.0312V21.5938ZM11.6071 19.25C11.1161 19.25 10.7143 19.6016 10.7143 20.0312V21.5938C10.7143 22.0234 11.1161 22.375 11.6071 22.375H13.3929C13.8839 22.375 14.2857 22.0234 14.2857 21.5938V20.0312C14.2857 19.6016 13.8839 19.25 13.3929 19.25H11.6071ZM17.8571 21.5938C17.8571 22.0234 18.2589 22.375 18.75 22.375H20.5357C21.0268 22.375 21.4286 22.0234 21.4286 21.5938V20.0312C21.4286 19.6016 21.0268 19.25 20.5357 19.25H18.75C18.2589 19.25 17.8571 19.6016 17.8571 20.0312V21.5938Z" fill="#EE7404"/>
</svg>
