<svg width="25" height="26" viewBox="0 0 25 26" fill="none" xmlns="http://www.w3.org/2000/svg">
<path d="M8.92857 2.0625V3.625H16.0714V2.0625C16.0714 1.19971 16.8694 0.5 17.8571 0.5C18.8449 0.5 19.6429 1.19971 19.6429 2.0625V3.625H22.3214C23.8002 3.625 25 4.67432 25 5.96875V8.3125H0V5.96875C0 4.67432 1.19922 3.625 2.67857 3.625H5.35714V2.0625C5.35714 1.19971 6.15513 0.5 7.14286 0.5C8.13058 0.5 8.92857 1.19971 8.92857 2.0625ZM0 9.875H25V23.1562C25 24.4502 23.8002 25.5 22.3214 25.5H2.67857C1.19922 25.5 0 24.4502 0 23.1562V9.875ZM4.46429 13C3.97098 13 3.57143 13.3516 3.57143 13.7812V18.4688C3.57143 18.8984 3.97098 19.25 4.46429 19.25H9.82143C10.3125 19.25 10.7143 18.8984 10.7143 18.4688V13.7812C10.7143 13.3516 10.3125 13 9.82143 13H4.46429Z" fill="#EE7404"/>
</svg>
