<svg width="28" height="32" viewBox="0 0 28 32" fill="none" xmlns="http://www.w3.org/2000/svg">
<g clip-path="url(#clip0_134_4340)">
<path d="M8.375 4.375H20V0.984375C20 0.716879 20.218 0.5 20.4844 0.5C20.7508 0.5 20.9688 0.716879 20.9688 0.984375V4.375H23.875C26.0123 4.375 27.75 6.10967 27.75 8.25V27.625C27.75 29.7623 26.0123 31.5 23.875 31.5H4.5C2.35967 31.5 0.625 29.7623 0.625 27.625V8.25C0.625 6.10967 2.35967 4.375 4.5 4.375H7.40625V0.984375C7.40625 0.716879 7.62422 0.5 7.89062 0.5C8.15703 0.5 8.375 0.716879 8.375 0.984375V4.375ZM26.7812 17.9375V12.125H19.0312V17.9375H26.7812ZM18.0625 12.125H10.3125V17.9375H18.0625V12.125ZM9.34375 12.125H1.59375V17.9375H9.34375V12.125ZM1.59375 18.9062V24.7188H9.34375V18.9062H1.59375ZM1.59375 25.6875V27.625C1.59375 29.2295 2.8949 30.5312 4.5 30.5312H9.34375V25.6875H1.59375ZM10.3125 30.5312H18.0625V25.6875H10.3125V30.5312ZM19.0312 30.5312H23.875C25.4795 30.5312 26.7812 29.2295 26.7812 27.625V25.6875H19.0312V30.5312ZM26.7812 24.7188V18.9062H19.0312V24.7188H26.7812ZM4.5 5.34375C2.8949 5.34375 1.59375 6.64551 1.59375 8.25V11.1562H26.7812V8.25C26.7812 6.64551 25.4795 5.34375 23.875 5.34375H20.9688V7.76562C20.9688 8.03203 20.7508 8.25 20.4844 8.25C20.218 8.25 20 8.03203 20 7.76562V5.34375H8.375V7.76562C8.375 8.03203 8.15703 8.25 7.89062 8.25C7.62422 8.25 7.40625 8.03203 7.40625 7.76562V5.34375H4.5ZM18.0625 18.9062H10.3125V24.7188H18.0625V18.9062Z" fill="#EE7404"/>
</g>
<defs>
<clipPath id="clip0_134_4340">
<rect width="27.125" height="31" fill="white" transform="translate(0.625 0.5)"/>
</clipPath>
</defs>
</svg>
