<svg width="32" height="32" viewBox="0 0 32 32" fill="none" xmlns="http://www.w3.org/2000/svg">
<g clip-path="url(#clip0_150_207)">
<path d="M14.9243 0.840376C14.5265 0.881916 13.7723 1.04219 13.6238 0.846268C13.4099 0.959108 13.2261 1.16681 13.1133 1.42225C13.0478 1.58841 13.0243 1.86772 13.0243 2.55065C13.0243 3.74415 12.971 3.84521 12.2344 4.065C11.7772 4.20171 10.827 4.58766 10.2926 4.85488C9.78788 5.11032 9.50268 5.15186 9.23546 5.00926C9.14649 4.96183 8.81975 4.66485 8.51099 4.3502C7.93501 3.76244 7.61416 3.55443 7.29362 3.54854C6.68788 3.54854 5.16175 4.76591 4.27701 5.95352C3.46357 7.04007 3.49302 7.3727 4.50269 8.3585C4.81734 8.66726 5.11432 8.994 5.16175 9.08297C5.31024 9.36786 5.26281 9.61152 4.89453 10.3834C4.69861 10.7873 4.44317 11.4108 4.32444 11.7728C4.05133 12.5863 4.03335 12.616 3.80178 12.7527C3.63531 12.8538 3.49891 12.8715 2.69136 12.8715C1.65813 12.8715 1.42067 12.9369 1.13547 13.2754C0.713872 13.7742 0.541512 16.0189 0.820822 17.355C0.933662 17.8836 1.01085 18.0677 1.21855 18.2577C1.49755 18.5249 1.73501 18.5724 2.70314 18.5724C3.49891 18.5724 3.63531 18.59 3.80178 18.6911C4.03335 18.8278 4.04513 18.8573 4.32444 19.671C4.44317 20.0272 4.7045 20.6568 4.89453 21.0604C5.26281 21.8323 5.31024 22.076 5.16175 22.3609C5.11432 22.4499 4.81734 22.7766 4.50269 23.0854C3.91493 23.6613 3.70692 23.9819 3.70103 24.3027C3.70103 25.229 6.33169 27.8953 7.24619 27.8953C7.60827 27.8953 7.8696 27.723 8.5764 27.0341C9.28909 26.3335 9.32474 26.3156 9.75223 26.3512C9.83531 26.3571 10.0374 26.4402 10.2036 26.5353C10.5837 26.7492 11.6584 27.2003 12.1631 27.355C12.6737 27.5153 12.7688 27.5689 12.9052 27.7943C13.0063 27.9604 13.024 28.0971 13.024 28.9047C13.024 29.9379 13.0894 30.1754 13.4279 30.4606C13.8793 30.8406 15.7675 31.0307 17.0859 30.8347C17.8817 30.716 18.0953 30.6506 18.3151 30.4665C18.6595 30.1757 18.7249 29.9379 18.7249 28.8988C18.7249 27.6101 18.6774 27.6696 20.061 27.1826C20.358 27.0757 20.8924 26.85 21.2486 26.6779C22.2998 26.1733 22.2936 26.1733 23.1724 27.0341C24.0869 27.9307 24.3362 28.0317 24.9301 27.7527C25.8388 27.3252 27.3767 25.8109 27.8993 24.8372C28.2022 24.2612 28.0655 23.887 27.2462 23.0854C26.9315 22.7766 26.6345 22.444 26.5809 22.3491C26.4442 22.0819 26.4739 21.7731 26.6761 21.4107C26.9017 21.013 27.3531 19.9441 27.5075 19.4332C27.6678 18.9227 27.7214 18.8275 27.9468 18.6911C28.1129 18.59 28.2496 18.5724 29.0572 18.5724C30.0904 18.5724 30.3279 18.507 30.6131 18.1684C30.9928 17.9958 31.1828 16.1073 30.9869 14.7891C30.8623 13.9577 30.7969 13.7677 30.5712 13.5126C30.2922 13.2038 30.0544 13.1502 29.0212 13.1502C28.2493 13.1502 28.1126 13.1325 27.9464 13.0314C27.7682 12.9245 27.5723 12.6455 27.5723 12.497C27.5723 12.3665 27.1327 11.2561 26.8301 10.6206C26.3255 9.57556 26.3255 9.58145 27.1863 8.7026C27.8575 8.01378 28.0475 7.72858 28.0475 7.40804C28.0475 6.81408 26.8422 5.31182 25.6543 4.4153C24.5616 3.58977 24.2292 3.61953 23.2375 4.6292C22.9288 4.94385 22.602 5.24083 22.5131 5.28826C22.2282 5.43675 21.9845 5.38901 21.2126 5.02104C20.8087 4.83101 20.1853 4.56968 19.8232 4.45095C19.0098 4.17195 18.98 4.16017 18.8433 3.92829C18.7422 3.76213 18.7246 3.62542 18.7246 2.82965C18.7246 1.30941 18.5584 1.11938 17.0323 0.887808C16.4978 0.810619 15.4587 0.780857 14.9243 0.840376ZM16.9253 8.10864C21.0226 8.65486 24.0094 12.2474 23.8076 16.3863C23.7363 17.9006 23.3268 19.1474 22.4954 20.3946C20.9454 22.7282 18.3684 24.0526 15.5774 23.9397C13.4871 23.8625 11.7533 23.1024 10.2628 21.6119C9.08697 20.442 8.42202 19.2069 8.05963 17.5382C7.90525 16.8317 7.90525 15.1689 8.05963 14.4624C8.30298 13.3461 8.65359 12.5029 9.26522 11.5825C9.71069 10.9055 10.6311 9.94942 11.2545 9.51015C12.2697 8.79157 13.5287 8.29278 14.7758 8.10864C15.2864 8.03734 16.385 8.03145 16.9253 8.10864Z" fill="#EE7404"/>
<path opacity="0.4" d="M14.3839 10.2151C12.6919 10.6593 11.3028 11.7942 10.4779 13.423C9.92795 14.5228 9.75187 16.1727 10.0547 17.4347C10.4847 19.2255 11.7256 20.7343 13.4037 21.5099C14.9335 22.2149 16.8794 22.2149 18.4096 21.5099C20.0876 20.7343 21.3285 19.2255 21.7585 17.4347C21.9488 16.638 21.9488 15.4395 21.7585 14.6428C21.3285 12.8519 20.0876 11.3432 18.4096 10.5679C17.2254 10.0179 15.6741 9.88401 14.3839 10.2151Z" fill="#EE7404"/>
</g>
<defs>
<clipPath id="clip0_150_207">
<rect width="31" height="31" fill="white" transform="translate(0.375 0.5)"/>
</clipPath>
</defs>
</svg>
