<svg width="32" height="32" viewBox="0 0 32 32" fill="none" xmlns="http://www.w3.org/2000/svg">
<g clip-path="url(#clip0_149_189)">
<path d="M14.9829 0.81031C14.8995 0.82209 14.6378 0.863941 14.3942 0.89959C13.6923 1.00065 13.3892 1.1138 13.0978 1.38722C12.6219 1.82153 12.5804 1.97002 12.5565 3.10617L12.5326 4.09352L12.3779 4.15304C12.2887 4.1828 11.9377 4.31362 11.5927 4.43266C11.2477 4.55759 10.7362 4.7718 10.4507 4.9144C10.1652 5.057 9.89764 5.17604 9.86199 5.17604C9.82045 5.17604 9.51696 4.90851 9.18402 4.58735C8.41677 3.84397 8.20256 3.72493 7.60798 3.71904C7.10237 3.71904 6.93001 3.79034 6.10324 4.39112C5.14565 5.07498 3.87279 6.53818 3.6468 7.21615C3.52776 7.57296 3.55752 8.08446 3.71221 8.41771C3.77762 8.54853 4.10467 8.9351 4.43792 9.28602C4.77706 9.63105 5.05048 9.94632 5.05048 9.97608C5.05048 10.0117 4.90788 10.3447 4.72932 10.7136C4.55076 11.0884 4.3071 11.677 4.18217 12.028L3.96796 12.6703H3.08198C2.34449 12.6703 2.14826 12.6883 1.88073 12.7893C1.01211 13.1158 0.685059 14.0079 0.685059 16.0301C0.685059 17.6774 0.863619 18.4211 1.38101 18.897C1.76758 19.2538 2.08874 19.331 3.12352 19.331H3.96796L4.18806 19.9674C4.3071 20.3242 4.55076 20.9132 4.72932 21.2877C4.90788 21.6625 5.05048 21.9954 5.05048 22.0252C5.05048 22.0608 4.78295 22.3584 4.45559 22.6914C3.71221 23.4468 3.53365 23.7915 3.58139 24.3626C3.61115 24.7848 3.73608 25.0405 4.25936 25.7662C4.88401 26.6287 6.13269 27.7586 6.88227 28.1393C7.05463 28.2227 7.30449 28.2881 7.53048 28.2999C8.07174 28.3355 8.38701 28.1691 9.16015 27.4316C9.51107 27.0983 9.82045 26.8249 9.8561 26.8249C9.88586 26.8249 10.2188 26.9675 10.5877 27.1461C10.9625 27.3246 11.5512 27.5683 11.908 27.6932L12.5444 27.9074V28.7934C12.5444 29.8282 12.6337 30.1673 13.0023 30.5241C13.2878 30.7917 13.4958 30.8989 13.9775 31.0118C15.0718 31.2616 16.5527 31.2793 17.647 31.0533C18.2357 30.9284 18.4679 30.8155 18.7711 30.5003C19.1102 30.1493 19.1697 29.9292 19.2054 28.8529L19.2351 27.8777L19.9013 27.6576C20.264 27.5326 20.853 27.2949 21.204 27.1281C21.549 26.9616 21.8639 26.8249 21.8999 26.8249C21.9356 26.8249 22.2332 27.0865 22.5602 27.4136C23.3036 28.1393 23.5476 28.276 24.1124 28.2819C24.4512 28.2819 24.5941 28.2521 24.8558 28.1213C25.623 27.7406 26.8301 26.6581 27.5261 25.7303C28.0019 25.0997 28.1445 24.7848 28.1743 24.3446C28.21 23.7974 28.0376 23.4704 27.2883 22.6972C26.7055 22.0906 26.6817 22.049 26.7412 21.9002C26.7768 21.811 26.9315 21.46 27.0862 21.1212C27.2409 20.7821 27.4548 20.247 27.5621 19.9317L27.7583 19.3607L28.7335 19.331C29.8102 19.2953 29.9766 19.2479 30.375 18.8908C30.8626 18.4506 31.0651 17.5881 31.0651 15.9705C31.0651 14.888 30.9699 14.109 30.7737 13.6449C30.6546 13.3535 30.268 12.9611 29.9708 12.824C29.7448 12.723 29.5423 12.6991 28.7335 12.6694L27.7701 12.6396L27.5559 12.0153C27.4368 11.6702 27.199 11.0874 27.0205 10.7126C26.8419 10.3379 26.6993 10.0108 26.6993 9.97515C26.6993 9.9395 26.9669 9.64221 27.288 9.30896C28.0196 8.55969 28.1504 8.32161 28.1563 7.76268C28.1563 7.42354 28.1266 7.28094 27.9957 7.0193C27.6151 6.25205 26.5564 5.06258 25.6466 4.37872C24.9745 3.87311 24.6651 3.73051 24.219 3.70075C23.666 3.6651 23.333 3.84335 22.5717 4.57495C22.2387 4.90789 21.9352 5.17573 21.8996 5.17573C21.8639 5.17573 21.5369 5.03313 21.1621 4.85457C20.7873 4.67601 20.1986 4.43235 19.8477 4.31331L19.2054 4.09321V3.24877C19.2054 2.25553 19.1279 1.92848 18.8129 1.55958C18.5333 1.23253 18.236 1.08373 17.5757 0.941128C17.0586 0.834179 15.3456 0.744902 14.9829 0.81031ZM16.9455 2.04752C17.5937 2.14858 17.8256 2.21988 17.9328 2.36868C17.9924 2.43998 18.01 2.7196 18.0162 3.33805C18.0162 4.25999 18.0578 4.48598 18.3017 4.80714C18.4921 5.06878 18.7181 5.20549 19.2237 5.35429C19.7411 5.51487 20.7402 5.93709 21.2458 6.21671C21.5967 6.41294 21.6683 6.43092 21.9238 6.39527C22.4294 6.31808 22.6969 6.1575 23.369 5.50309C23.8269 5.057 24.0529 4.87844 24.1539 4.87844C24.3799 4.87844 25.1233 5.43148 25.7836 6.09178C26.3903 6.69845 26.9969 7.52522 26.9969 7.74532C26.9969 7.81662 26.7294 8.13778 26.3369 8.54233C25.9801 8.91712 25.641 9.31547 25.5936 9.42862C25.5458 9.54177 25.5102 9.79132 25.5102 9.98755C25.5102 10.2969 25.5517 10.4278 25.8967 11.1296C26.1051 11.5698 26.3726 12.2 26.4857 12.5392C26.7176 13.2351 26.7948 13.3777 27.0685 13.5798C27.3897 13.8176 27.6157 13.8594 28.5435 13.8594C29.6201 13.8594 29.6496 13.8774 29.7686 14.49C30.0185 15.7567 29.8759 17.7791 29.5129 18.0587C29.4357 18.1182 29.1799 18.1359 28.5138 18.1418C27.705 18.1418 27.5918 18.1536 27.3243 18.2844C26.8723 18.4986 26.7356 18.6831 26.4916 19.4202C26.3785 19.777 26.1051 20.4314 25.8967 20.8713C25.5517 21.5732 25.5102 21.704 25.5102 22.0193C25.5102 22.5128 25.6531 22.7568 26.3785 23.5001C26.8246 23.958 26.9969 24.1781 26.9969 24.2792C26.9969 24.8204 24.6775 27.1222 24.13 27.1222C24.0587 27.1222 23.7494 26.8664 23.3392 26.4681C22.9703 26.1054 22.572 25.7721 22.4529 25.7247C22.3398 25.677 22.0902 25.6354 21.8999 25.6354C21.6026 25.6354 21.4538 25.6829 20.752 26.0161C20.3118 26.2303 19.6456 26.4978 19.2829 26.6169C18.724 26.8013 18.581 26.8726 18.4264 27.0512C18.0695 27.4557 18.0159 27.652 18.0159 28.6452C18.0159 29.7454 18.0038 29.7752 17.3854 29.8942C16.1184 30.1441 14.0963 30.0015 13.817 29.6385C13.7574 29.5613 13.7398 29.3055 13.7336 28.6632C13.7336 27.7471 13.6861 27.5153 13.454 27.1941C13.2518 26.9266 13.1089 26.8432 12.4133 26.6113C12.0741 26.4923 11.438 26.2306 10.9978 26.0164C10.296 25.6832 10.1475 25.6357 9.8499 25.6357C9.65956 25.6357 9.4097 25.6773 9.29686 25.725C9.17782 25.7724 8.77947 26.1057 8.41057 26.4684C7.92294 26.9442 7.70284 27.1225 7.59589 27.1225C7.3699 27.1225 6.63241 26.5753 5.96622 25.9092C5.36544 25.3084 4.75288 24.4757 4.75288 24.2559C4.75288 24.1846 5.00863 23.8752 5.37133 23.5005C6.13858 22.7093 6.26351 22.4833 6.22786 21.9421C6.20399 21.6566 6.15067 21.4603 6.03752 21.252C5.80564 20.8475 5.37722 19.8307 5.22873 19.3489C5.07993 18.8433 4.94322 18.6173 4.68158 18.427C4.36042 18.183 4.13443 18.1415 3.2066 18.1415C2.45113 18.1415 2.30853 18.1235 2.19538 18.0345C1.89809 17.7968 1.74929 16.1135 1.92165 14.9358C1.98117 14.561 2.05247 14.1983 2.08812 14.1329C2.21894 13.883 2.31411 13.8653 3.2004 13.8591C4.21751 13.8591 4.45528 13.7996 4.78853 13.4726C4.99065 13.2705 5.06815 13.1099 5.28205 12.4911C5.41876 12.0807 5.69249 11.4266 5.88872 11.04C6.19221 10.4274 6.23964 10.2845 6.23964 9.99933C6.23375 9.49961 6.07906 9.22619 5.37722 8.50637C4.92524 8.04261 4.75257 7.82251 4.75257 7.71525C4.75257 7.48926 5.41287 6.61506 6.02543 6.02606C6.60234 5.46713 7.41702 4.87813 7.61945 4.87813C7.69075 4.87813 8.00013 5.13388 8.41057 5.53223C8.77947 5.89493 9.17782 6.22818 9.29686 6.27561C9.41001 6.32304 9.65956 6.36489 9.84401 6.36489C10.1413 6.36489 10.2842 6.31746 10.8729 6.02575C11.2477 5.8413 11.89 5.57377 12.2942 5.43706C13.1567 5.13977 13.3944 4.9733 13.591 4.55697C13.7218 4.27735 13.7336 4.17629 13.7336 3.34363C13.7336 2.45734 13.7395 2.42758 13.8824 2.29087C13.9596 2.20748 14.0609 2.14207 14.1025 2.14207C14.144 2.13618 14.4057 2.10053 14.6853 2.05868C15.3636 1.94646 16.2557 1.94646 16.9455 2.04752Z" fill="#EE7404"/>
<path d="M15.1317 7.76888C13.871 7.94744 13.0916 8.17343 12.2295 8.60154C8.71411 10.3385 6.90619 14.2876 7.88765 18.082C8.25624 19.5154 9.16051 21.0499 10.2071 22.0072C12.9726 24.5467 16.9279 24.9751 20.1097 23.0838C22.1201 21.8884 23.5414 19.8424 23.9993 17.4871C24.1599 16.6485 24.1481 15.2269 23.9695 14.3942C23.791 13.5556 23.5947 13.0026 23.2141 12.2471C22.072 10.0049 19.8834 8.35757 17.4152 7.88172C16.9279 7.78686 15.4885 7.71556 15.1317 7.76888ZM17.2729 9.0715C19.0275 9.4404 20.5025 10.3859 21.567 11.8193C22.4831 13.0503 22.9171 14.4066 22.9171 16.0003C22.9171 16.5952 22.8873 17.0174 22.816 17.3562C22.2035 20.2408 20.1159 22.3224 17.2193 22.9409C16.6126 23.0717 15.1913 23.0838 14.5964 22.9648C11.7118 22.3937 9.55886 20.2647 8.93421 17.368C8.79161 16.7077 8.79161 15.221 8.93421 14.5904C9.6004 11.6346 11.8485 9.49341 14.8044 9.01167C15.4349 8.90503 16.6244 8.93479 17.2729 9.0715Z" fill="#EE7404"/>
</g>
<defs>
<clipPath id="clip0_149_189">
<rect width="31" height="31" fill="white" transform="translate(0.375 0.5)"/>
</clipPath>
</defs>
</svg>
