<svg width="36" height="32" viewBox="0 0 36 32" fill="none" xmlns="http://www.w3.org/2000/svg">
<path d="M35.4616 15.6367C35.6614 15.8122 35.6796 16.0665 35.4495 16.3208C35.3284 16.5206 35.0196 16.5388 34.8198 16.3087L31.7501 13.6447V27.6249C31.7501 29.7622 30.0124 31.4999 27.8751 31.4999H8.50012C6.35978 31.4999 4.62512 29.7622 4.62512 27.6249V13.6447L1.55539 16.3087C1.3554 16.5388 1.04928 16.5206 0.871937 16.3208C0.694522 16.0665 0.713086 15.8122 0.913351 15.6367L17.8667 0.621702C18.0484 0.459351 18.3269 0.459351 18.5085 0.621702L35.4616 15.6367ZM8.50012 30.5312H13.3439V20.3593C13.3439 19.554 13.9917 18.9062 14.797 18.9062H21.5782C22.3835 18.9062 23.0314 19.554 23.0314 20.3593V30.5312H27.8751C29.4796 30.5312 30.7814 29.2294 30.7814 27.6249V12.7849L18.1876 1.63156L5.59387 12.7849V27.6249C5.59387 29.2294 6.89562 30.5312 8.50012 30.5312ZM14.3126 30.5312H22.0626V20.3593C22.0626 20.0929 21.8446 19.8749 21.5782 19.8749H14.797C14.5306 19.8749 14.3126 20.0929 14.3126 20.3593V30.5312Z" fill="#EE7404"/>
</svg>
