<svg width="36" height="32" viewBox="0 0 36 32" fill="none" xmlns="http://www.w3.org/2000/svg">
<g clip-path="url(#clip0_134_4337)">
<path d="M16.9101 0.979639C17.5882 0.340446 18.7325 0.340446 19.4652 0.979639L34.9651 14.541C35.7704 15.2494 35.8491 16.4725 35.1468 17.2778C34.4384 18.083 33.2153 18.1618 32.4101 17.4594L18.1876 5.01218L3.96334 17.4594C3.15806 18.1618 1.93441 18.083 1.22952 17.2778C0.52488 16.4725 0.606497 15.2494 1.41189 14.541L16.9101 0.979639Z" fill="#EE7404"/>
<path opacity="0.4" d="M18.1875 5.01196L31.7561 16.884L31.7803 29.0721C31.7863 30.4102 30.7025 31.5 29.3584 31.5H24.4844C23.1463 31.5 22.0625 30.4162 22.0625 29.0781V23.7318C22.0625 22.6602 21.1967 21.7943 20.125 21.7943H16.25C15.1783 21.7943 14.3125 22.6602 14.3125 23.7318V29.0781C14.3125 30.4162 13.2287 31.5 11.8906 31.5H7.05294C5.66036 31.5 4.63046 30.4162 4.62985 29.0781L4.62622 16.8779L18.1875 5.01196Z" fill="#EE7404"/>
</g>
<defs>
<clipPath id="clip0_134_4337">
<rect width="34.875" height="31" fill="white" transform="translate(0.75 0.5)"/>
</clipPath>
</defs>
</svg>
