<svg width="40" height="32" viewBox="0 0 40 32" fill="none" xmlns="http://www.w3.org/2000/svg">
<g clip-path="url(#clip0_134_4925)">
<path d="M5.34375 11.6406C5.34375 10.8354 5.99463 10.1875 6.79688 10.1875H10.1875C12.3248 10.1875 14.0625 11.9252 14.0625 14.0625C14.0625 16.1998 12.3248 17.9375 10.1875 17.9375H8.25V20.3594C8.25 21.1646 7.60215 21.8125 6.79688 21.8125C5.99463 21.8125 5.34375 21.1646 5.34375 20.3594V11.6406ZM8.25 15.0312H10.1875C10.7203 15.0312 11.1562 14.5953 11.1562 14.0625C11.1562 13.5297 10.7203 13.0938 10.1875 13.0938H8.25V15.0312ZM15.0312 11.6406C15.0312 10.8354 15.6791 10.1875 16.4844 10.1875H19.875C22.0123 10.1875 23.75 11.9252 23.75 14.0625C23.75 15.3885 23.084 16.557 22.0729 17.2533L23.532 19.5904C23.9559 20.2686 23.6955 21.1646 23.0658 21.5945C22.3877 22.0184 21.4916 21.758 21.0617 21.1283L19.0697 17.9375H17.9375V20.3594C17.9375 21.1646 17.2896 21.8125 16.4844 21.8125C15.6791 21.8125 15.0312 21.1646 15.0312 20.3594V11.6406ZM17.9375 15.0312H19.875C20.4078 15.0312 20.8438 14.5953 20.8438 14.0625C20.8438 13.5297 20.4078 13.0938 19.875 13.0938H17.9375V15.0312ZM35.375 15.5156V16.4844C35.375 19.427 32.9895 21.8125 30.0469 21.8125C27.1043 21.8125 24.7188 19.427 24.7188 16.4844V15.5156C24.7188 12.573 27.1043 10.1875 30.0469 10.1875C32.9895 10.1875 35.375 12.573 35.375 15.5156ZM27.625 16.4844C27.625 17.8225 28.7088 18.9062 30.0469 18.9062C31.385 18.9062 32.4688 17.8225 32.4688 16.4844V15.5156C32.4688 14.1775 31.385 13.0938 30.0469 13.0938C28.7088 13.0938 27.625 14.1775 27.625 15.5156V16.4844Z" fill="#EE7404"/>
<path opacity="0.4" d="M10.1875 15.0312H8.25V13.0938H10.1875C10.7203 13.0938 11.1562 13.5297 11.1562 14.0625C11.1562 14.5953 10.7203 15.0312 10.1875 15.0312ZM17.9375 13.0938H19.875C20.4078 13.0938 20.8438 13.5297 20.8438 14.0625C20.8438 14.5953 20.4078 15.0312 19.875 15.0312H17.9375V13.0938ZM27.625 15.5156C27.625 14.1775 28.7088 13.0938 30.0469 13.0938C31.385 13.0938 32.4688 14.1775 32.4688 15.5156V16.4844C32.4688 17.8225 31.385 18.9062 30.0469 18.9062C28.7088 18.9062 27.625 17.8225 27.625 16.4844V15.5156ZM35.375 2.4375C37.5123 2.4375 39.25 4.17217 39.25 6.3125V25.6875C39.25 27.8248 37.5123 29.5625 35.375 29.5625H4.375C2.23467 29.5625 0.5 27.8248 0.5 25.6875V6.3125C0.5 4.17217 2.23467 2.4375 4.375 2.4375H35.375ZM6.79688 10.1875C5.99463 10.1875 5.34375 10.8354 5.34375 11.6406V20.3594C5.34375 21.1646 5.99463 21.8125 6.79688 21.8125C7.60215 21.8125 8.25 21.1646 8.25 20.3594V17.9375H10.1875C12.3248 17.9375 14.0625 16.1998 14.0625 14.0625C14.0625 11.9252 12.3248 10.1875 10.1875 10.1875H6.79688ZM15.0312 20.3594C15.0312 21.1646 15.6791 21.8125 16.4844 21.8125C17.2896 21.8125 17.9375 21.1646 17.9375 20.3594V17.9375H19.0697L21.0617 21.1283C21.4916 21.758 22.3877 22.0184 23.0658 21.5945C23.6955 21.1646 23.9559 20.2686 23.532 19.5904L22.0729 17.2533C23.084 16.557 23.75 15.3885 23.75 14.0625C23.75 11.9252 22.0123 10.1875 19.875 10.1875H16.4844C15.6791 10.1875 15.0312 10.8354 15.0312 11.6406V20.3594ZM30.0469 10.1875C27.1043 10.1875 24.7188 12.573 24.7188 15.5156V16.4844C24.7188 19.427 27.1043 21.8125 30.0469 21.8125C32.9895 21.8125 35.375 19.427 35.375 16.4844V15.5156C35.375 12.573 32.9895 10.1875 30.0469 10.1875Z" fill="#EE7404"/>
</g>
<defs>
<clipPath id="clip0_134_4925">
<rect width="38.75" height="31" fill="white" transform="translate(0.5 0.5)"/>
</clipPath>
</defs>
</svg>
