<svg width="40" height="32" viewBox="0 0 40 32" fill="none" xmlns="http://www.w3.org/2000/svg">
<g clip-path="url(#clip0_134_4766)">
<path d="M10.1875 11.1562C11.792 11.1562 13.0938 12.458 13.0938 14.0625C13.0938 15.667 11.792 16.9688 10.1875 16.9688H7.28125V20.3594C7.28125 20.6258 7.06328 20.8438 6.79688 20.8438C6.52926 20.8438 6.3125 20.6258 6.3125 20.3594V11.6406C6.3125 11.3742 6.52926 11.1562 6.79688 11.1562H10.1875ZM12.125 14.0625C12.125 12.9908 11.2592 12.125 10.1875 12.125H7.28125V16H10.1875C11.2592 16 12.125 15.1342 12.125 14.0625ZM16 11.6406C16 11.3742 16.218 11.1562 16.4844 11.1562H19.875C21.4795 11.1562 22.7812 12.458 22.7812 14.0625C22.7812 15.3885 21.8912 16.5086 20.6803 16.8537L22.7086 20.1051C22.8479 20.3291 22.7268 20.6258 22.5512 20.7711C22.3271 20.9104 22.0305 20.7893 21.8852 20.6137L19.6086 16.9688H16.9688V20.3594C16.9688 20.6258 16.7508 20.8438 16.4844 20.8438C16.218 20.8438 16 20.6258 16 20.3594V11.6406ZM16.9688 16H19.875C20.9467 16 21.8125 15.1342 21.8125 14.0625C21.8125 12.9908 20.9467 12.125 19.875 12.125H16.9688V16ZM33.9219 15.5156V16.4844C33.9219 18.8941 31.9723 20.8438 29.5625 20.8438C27.1527 20.8438 25.2031 18.8941 25.2031 16.4844V15.5156C25.2031 13.1059 27.1527 11.1562 29.5625 11.1562C31.9723 11.1562 33.9219 13.1059 33.9219 15.5156ZM26.1719 16.4844C26.1719 18.3553 27.6916 19.875 29.5625 19.875C31.4334 19.875 32.9531 18.3553 32.9531 16.4844V15.5156C32.9531 13.6447 31.4334 12.125 29.5625 12.125C27.6916 12.125 26.1719 13.6447 26.1719 15.5156V16.4844ZM0.5 6.3125C0.5 4.17217 2.23467 2.4375 4.375 2.4375H35.375C37.5123 2.4375 39.25 4.17217 39.25 6.3125V25.6875C39.25 27.8248 37.5123 29.5625 35.375 29.5625H4.375C2.23467 29.5625 0.5 27.8248 0.5 25.6875V6.3125ZM1.46875 6.3125V25.6875C1.46875 27.292 2.7699 28.5938 4.375 28.5938H35.375C36.9795 28.5938 38.2812 27.292 38.2812 25.6875V6.3125C38.2812 4.7074 36.9795 3.40625 35.375 3.40625H4.375C2.7699 3.40625 1.46875 4.7074 1.46875 6.3125Z" fill="#EE7404"/>
</g>
<defs>
<clipPath id="clip0_134_4766">
<rect width="38.75" height="31" fill="white" transform="translate(0.5 0.5)"/>
</clipPath>
</defs>
</svg>
