<svg width="31" height="32" viewBox="0 0 31 32" fill="none" xmlns="http://www.w3.org/2000/svg">
<g clip-path="url(#clip0_143_193)">
<path d="M30.2916 27.3646L23.0441 20.1172C22.1341 21.4674 20.9698 22.6323 19.619 23.5423L26.8665 30.7898C27.8122 31.7355 29.3459 31.7355 30.2916 30.7898C31.2361 29.8471 31.2361 28.3092 30.2916 27.3646Z" fill="#EE7404"/>
<path opacity="0.4" d="M12.5391 0.5C5.63794 0.5 -0.000198364 6.13873 -0.000198364 13.0938C-0.000198364 20.0488 5.63794 25.6875 12.5391 25.6875C19.4402 25.6875 25.1328 20.0488 25.1328 13.0938C25.1328 6.13873 19.5504 0.5 12.5391 0.5ZM12.5391 20.8438C8.26567 20.8438 4.78907 17.3671 4.78907 13.0938C4.78907 8.82035 8.26567 5.34375 12.5391 5.34375C16.8125 5.34375 20.2891 8.82035 20.2891 13.0938C20.2891 17.3684 16.8682 20.8438 12.5391 20.8438Z" fill="#EE7404"/>
</g>
<defs>
<clipPath id="clip0_143_193">
<rect width="31" height="31" fill="white" transform="translate(0 0.5)"/>
</clipPath>
</defs>
</svg>
