<svg width="40" height="32" viewBox="0 0 40 32" fill="none" xmlns="http://www.w3.org/2000/svg">
<g clip-path="url(#clip0_134_4342)">
<path d="M34.4443 12.125H29.8125C29.4511 12.125 29.0878 12.1676 28.7323 12.2518C28.4722 12.3133 28.3114 12.5744 28.3728 12.8345C28.432 13.0937 28.6924 13.2633 28.9527 13.1967C29.2373 13.1301 29.5279 13.0938 29.8125 13.0938H34.4443C36.6967 13.0938 38.5312 15.0494 38.5312 17.4531C38.5312 17.7195 38.3375 17.9375 38.1014 17.9375H27.875C27.6073 17.9375 27.3906 18.1541 27.3906 18.4219C27.3906 18.6896 27.6086 18.9062 27.875 18.9062H38.1014C38.8703 18.9062 39.5 18.2523 39.5 17.4531C39.5 14.5166 37.2295 12.125 34.4443 12.125ZM31.75 10.1875C34.425 10.1875 36.5938 8.01871 36.5938 5.34375C36.5938 2.66879 34.4262 0.5 31.75 0.5C29.075 0.5 26.9062 2.66879 26.9062 5.34375C26.9062 8.01871 29.0738 10.1875 31.75 10.1875ZM31.75 1.46875C33.8867 1.46875 35.625 3.20705 35.625 5.34375C35.625 7.48045 33.8867 9.21875 31.75 9.21875C29.6133 9.21875 27.875 7.48045 27.875 5.34375C27.875 3.20705 29.6127 1.46875 31.75 1.46875ZM8.5 10.1875C11.175 10.1875 13.3438 8.01871 13.3438 5.34375C13.3438 2.66879 11.1762 0.5 8.5 0.5C5.82504 0.5 3.65625 2.66879 3.65625 5.34375C3.65625 8.01871 5.82504 10.1875 8.5 10.1875ZM8.5 1.46875C10.6367 1.46875 12.375 3.20705 12.375 5.34375C12.375 7.48045 10.6367 9.21875 8.5 9.21875C6.3633 9.21875 4.625 7.48045 4.625 5.34375C4.625 3.20705 6.3633 1.46875 8.5 1.46875ZM12.8594 18.4219C12.8594 18.1555 12.6414 17.9375 12.375 17.9375H2.14803C1.91189 17.9375 1.71875 17.7195 1.71875 17.4531C1.71875 15.0494 3.55211 13.0938 5.80566 13.0938H10.4375C10.7241 13.0938 11.0127 13.1278 11.2948 13.194C11.5576 13.2633 11.818 13.0937 11.8785 12.8334C11.94 12.5732 11.7792 12.3122 11.519 12.2506C11.1096 12.1674 10.7463 12.125 10.4375 12.125H5.80566C3.01748 12.125 0.75 14.5166 0.75 17.4531C0.75 18.2523 1.37727 18.9062 2.14803 18.9062H12.375C12.6414 18.9062 12.8594 18.6883 12.8594 18.4219ZM20.1189 19.875C23.5949 19.875 26.3613 17.0559 26.3613 13.5781C26.3613 10.1003 23.5435 7.28125 20.1189 7.28125C16.6429 7.28125 13.8766 10.1003 13.8766 13.5781C13.8221 17.0535 16.6436 19.875 20.1189 19.875ZM20.1189 8.25C23.0555 8.25 25.4446 10.6404 25.4446 13.5781C25.4446 16.5159 23.0555 18.9062 20.1189 18.9062C17.1824 18.9062 14.7908 16.5146 14.7908 13.5781C14.7908 10.6416 17.1824 8.25 20.1189 8.25ZM23.1463 21.8125H17.1037C12.3508 21.8125 8.5 25.4271 8.5 29.8834C8.5 30.7795 9.26894 31.5 10.2195 31.5H30.0305C30.9811 31.5 31.75 30.7795 31.75 29.8834C31.75 25.4271 27.8992 21.8125 23.1463 21.8125ZM30.0305 30.5312H10.2195C9.80781 30.5312 9.46875 30.2406 9.46875 29.8834C9.46875 25.966 12.8957 22.7812 17.1037 22.7812H23.1463C27.3567 22.7812 30.7812 25.9678 30.7812 29.8834C30.7812 30.2406 30.4422 30.5312 30.0305 30.5312Z" fill="#EE7404"/>
</g>
<defs>
<clipPath id="clip0_134_4342">
<rect width="38.75" height="31" fill="white" transform="translate(0.75 0.5)"/>
</clipPath>
</defs>
</svg>
