<svg width="40" height="32" viewBox="0 0 40 32" fill="none" xmlns="http://www.w3.org/2000/svg">
<g clip-path="url(#clip0_134_4609)">
<path d="M20.1189 19.875C23.5949 19.875 26.3613 17.0559 26.3613 13.5781C26.3613 10.1003 23.5435 7.28125 20.1189 7.28125C16.6429 7.28125 13.8766 10.1003 13.8766 13.5781C13.8221 17.0535 16.6436 19.875 20.1189 19.875ZM23.1463 21.8125H17.1037C12.3508 21.8125 8.5 25.4271 8.5 29.8834C8.5 30.7795 9.26894 31.5 10.2195 31.5H30.0305C30.9811 31.5 31.75 30.7795 31.75 29.8834C31.75 25.4271 27.8992 21.8125 23.1463 21.8125Z" fill="#EE7404"/>
<path opacity="0.4" d="M8.5 10.1875C11.175 10.1875 13.3438 8.01871 13.3438 5.34375C13.3438 2.66879 11.1762 0.5 8.5 0.5C5.82504 0.5 3.65625 2.66879 3.65625 5.34375C3.65625 8.01871 5.82504 10.1875 8.5 10.1875ZM31.75 10.1875C34.425 10.1875 36.5938 8.01871 36.5938 5.34375C36.5938 2.66879 34.4262 0.5 31.75 0.5C29.075 0.5 26.9062 2.66879 26.9062 5.34375C26.9062 8.01871 29.0738 10.1875 31.75 10.1875ZM34.1658 12.125H30.4216C29.6466 12.125 28.9152 12.3089 28.2504 12.6239C28.2867 12.9424 28.3473 13.2512 28.3473 13.5781C28.3473 15.6192 27.5735 17.4658 26.3395 18.9062H38.4307C39.0217 18.9062 39.5 18.3977 39.5 17.774C39.5 14.6559 37.1145 12.125 34.1658 12.125ZM11.9814 12.6154C11.3215 12.2521 10.5949 12.125 9.82598 12.125H6.08297C3.13797 12.125 0.75 14.6559 0.75 17.774C0.75 18.3977 1.22753 18.9062 1.81684 18.9062H13.8959C12.662 17.4658 11.8882 15.6192 11.8882 13.5781C11.8846 13.2512 11.9451 12.9363 11.9814 12.6154Z" fill="#EE7404"/>
</g>
<defs>
<clipPath id="clip0_134_4609">
<rect width="38.75" height="31" fill="white" transform="translate(0.75 0.5)"/>
</clipPath>
</defs>
</svg>
